<?xml version="1.0" encoding="utf-8"?>
<!-- Generator: Adobe Illustrator 19.0.0, SVG Export Plug-In . SVG Version: 6.00 Build 0)  -->
<svg version="1.1" id="Layer_1" xmlns="http://www.w3.org/2000/svg" xmlns:xlink="http://www.w3.org/1999/xlink" x="0px" y="0px"
	 viewBox="-273 359 64 75" style="enable-background:new -273 359 64 75;" xml:space="preserve">
<style type="text/css">
	.st0{opacity:0.6992;}
	.st1{filter:url(#Adobe_OpacityMaskFilter);}
	.st2{fill:#FFFFFF;}
	.st3{mask:url(#mask-2);}
	.st4{fill:none;stroke:#333333;stroke-width:48;stroke-dasharray:1,4;}
</style>
<title>Oval Copy</title>
<desc>Created with Sketch.</desc>
<g id="Final" class="st0">
	<g id="v1-1-4-mobile-floor" transform="translate(-231.000000, -361.000000)">
		<g id="Group" transform="translate(0.000000, -44.000000)">
			<g id="Group-5" transform="translate(20.000000, 111.000000)">
				<g id="Group-4">
					<g id="round" transform="translate(57.000000, 163.000000)">
						<g id="Screen">
							<g id="Dial">
								<g id="faded-ticks">
									<defs>
										<filter id="Adobe_OpacityMaskFilter" filterUnits="userSpaceOnUse" x="-297" y="335" width="269" height="269">
											<feColorMatrix  type="matrix" values="1 0 0 0 0  0 1 0 0 0  0 0 1 0 0  0 0 0 1 0"/>
										</filter>
									</defs>
									<mask maskUnits="userSpaceOnUse" x="-297" y="335" width="269" height="269" id="mask-2">
										<g class="st1">
											<path id="path-1" class="st2" d="M-161.5,581c61,0,110.5-49.5,110.5-110.5S-100.5,360-161.5,360S-272,409.5-272,470.5
												S-222.5,581-161.5,581z"/>
										</g>
									</mask>
									<g id="Group-7" transform="translate(153.000000, 130.000000)" class="st3">
										<g id="Oval-Copy">
											<path id="path-1_1_" class="st4" d="M-315.5,450c61,0,110.5-49.5,110.5-110.5S-254.5,229-315.5,229S-426,278.5-426,339.5
												S-376.5,450-315.5,450z"/>
										</g>
									</g>
								</g>
							</g>
						</g>
					</g>
				</g>
			</g>
		</g>
	</g>
</g>
</svg>
